<?xml version="1.0" standalone="no"?>
<!DOCTYPE svg PUBLIC "-//W3C//DTD SVG 20010904//EN"
 "http://www.w3.org/TR/2001/REC-SVG-20010904/DTD/svg10.dtd">
<svg version="1.0" xmlns="http://www.w3.org/2000/svg"
 width="502.000000pt" height="502.000000pt" viewBox="0 0 502.000000 502.000000"
 preserveAspectRatio="xMidYMid meet">
<metadata>
Created by potrace 1.14, written by Peter Selinger 2001-2017
</metadata>
<g transform="translate(0.000000,502.000000) scale(0.100000,-0.100000)"
fill="#000000" stroke="none">
<path d="M2957 5003 c-6 -5 83 -146 96 -151 4 -2 7 -10 7 -17 0 -8 6 -20 13
-27 7 -7 37 -62 67 -123 30 -60 57 -112 60 -115 3 -3 11 -16 19 -30 8 -14 21
-36 30 -49 15 -23 14 -23 -9 -16 -14 4 -28 12 -31 18 -4 5 -11 7 -17 3 -5 -3
-15 1 -22 9 -6 7 -17 12 -25 9 -7 -3 -16 -1 -20 5 -3 6 -15 11 -25 11 -10 0
-20 4 -22 10 -1 5 -15 11 -30 12 -24 2 -43 26 -39 51 1 5 -3 6 -9 2 -6 -3 -10
3 -10 16 0 12 -3 20 -6 16 -3 -3 -19 9 -34 27 -16 18 -45 41 -64 51 -20 11
-36 23 -36 27 0 5 -10 8 -23 8 -13 0 -27 4 -33 9 -20 18 -102 30 -189 27 -80
-2 -242 -31 -255 -46 -3 -3 -16 -7 -30 -9 -14 -1 -27 -6 -30 -10 -3 -3 -14 -8
-25 -9 -11 -2 -33 -10 -50 -17 -28 -13 -60 -24 -95 -33 -32 -8 -110 -18 -125
-16 -8 1 -15 -1 -15 -6 0 -4 -24 -10 -52 -13 -60 -5 -152 -25 -188 -40 -8 -4
-26 -8 -40 -11 -42 -7 -165 -50 -168 -58 -2 -4 -12 -8 -23 -8 -11 0 -27 -4
-37 -9 -38 -21 -195 -91 -203 -91 -5 0 -9 -4 -9 -10 0 -5 -11 -12 -25 -16 -14
-3 -25 -10 -25 -15 0 -5 -7 -9 -15 -9 -8 0 -15 -5 -15 -11 0 -5 -4 -7 -10 -4
-5 3 -10 1 -10 -4 0 -6 -5 -11 -12 -11 -6 0 -26 -11 -44 -25 -18 -14 -37 -25
-42 -25 -6 0 -12 -3 -14 -8 -1 -4 -34 -30 -73 -58 -145 -105 -328 -285 -434
-429 -28 -39 -56 -75 -61 -82 -6 -7 -10 -15 -10 -18 0 -4 -6 -13 -12 -20 -22
-24 -32 -39 -52 -75 -11 -19 -22 -37 -25 -40 -3 -3 -24 -41 -46 -85 -22 -44
-44 -83 -50 -87 -5 -4 -6 -8 -2 -8 5 0 0 -15 -10 -33 -20 -32 -38 -85 -35 -99
1 -5 -2 -8 -6 -8 -4 0 -14 -21 -21 -47 -8 -27 -18 -55 -22 -63 -4 -8 -15 -44
-24 -80 -10 -36 -21 -76 -25 -90 -5 -14 -11 -41 -14 -60 -3 -19 -9 -46 -12
-60 -3 -14 -7 -47 -10 -75 -3 -27 -9 -61 -13 -75 -17 -57 -15 -506 2 -550 3
-8 8 -35 11 -60 9 -78 31 -188 39 -196 4 -4 7 -16 7 -27 0 -27 22 -87 32 -87
11 0 10 10 -5 61 -8 24 -14 46 -14 49 -4 19 -15 72 -24 110 -5 25 -12 66 -15
90 -2 25 -6 61 -8 80 -4 32 -18 241 -19 265 0 29 16 243 20 260 2 11 7 48 10
83 3 34 9 62 13 62 5 0 7 8 6 17 -6 41 76 324 124 429 11 23 22 54 26 68 3 14
10 26 14 26 4 0 10 10 14 23 7 29 7 28 27 62 10 17 26 46 36 65 9 19 22 40 28
46 5 7 28 42 50 78 22 36 44 66 48 66 5 0 5 5 2 10 -3 6 1 13 9 16 9 3 16 12
16 20 0 8 4 14 9 14 4 0 20 17 33 38 14 20 40 52 57 69 17 18 31 35 31 37 0 9
215 216 225 216 2 0 21 16 42 35 21 19 43 35 49 35 7 0 14 7 18 15 3 8 13 15
21 15 9 0 13 5 10 10 -3 6 0 10 8 10 7 0 22 8 33 18 10 9 36 26 57 37 20 11
37 23 37 26 0 4 10 9 23 13 12 3 31 14 42 24 11 10 25 19 30 20 6 2 47 21 92
42 45 22 89 40 97 40 9 0 16 4 16 10 0 5 21 16 48 24 26 8 74 25 107 36 33 12
67 23 76 25 8 2 39 10 67 19 29 8 52 13 52 10 0 -3 8 -1 18 5 9 5 37 12 62 16
25 4 54 8 65 10 11 2 25 4 30 6 6 2 19 -2 30 -8 11 -6 43 -13 70 -16 28 -4 62
-9 77 -12 16 -3 40 -7 55 -9 16 -3 39 -7 53 -11 41 -10 84 -18 103 -19 9 0 17
-4 17 -8 0 -4 9 -8 20 -8 10 0 29 -4 42 -9 43 -16 134 -41 161 -43 15 -1 27
-5 27 -9 0 -4 48 -6 108 -4 108 2 188 19 227 49 22 17 65 21 65 7 0 -8 66 -26
83 -23 4 1 7 -2 7 -8 0 -5 9 -10 20 -10 11 0 20 -4 20 -10 0 -5 8 -10 18 -10
9 0 39 -11 66 -25 27 -14 56 -25 63 -25 8 0 11 -5 8 -10 -4 -6 -3 -10 2 -9 16
2 53 -13 53 -23 0 -5 4 -7 9 -4 4 3 16 -3 26 -14 17 -19 17 -19 -6 -14 -13 3
-31 5 -39 5 -8 -1 -26 -1 -40 0 -40 1 -40 1 -140 -6 -52 -4 -103 -7 -112 -7
-10 1 -18 -3 -18 -8 0 -4 -15 -10 -32 -13 -66 -10 -207 -62 -220 -81 -4 -6 -8
-7 -8 -3 0 5 -13 -1 -29 -12 -16 -12 -34 -21 -39 -21 -15 0 -22 -26 -9 -39 6
-6 17 -11 24 -11 7 0 13 -5 13 -10 0 -6 6 -10 13 -9 6 1 19 0 27 -4 38 -14 83
-20 180 -23 96 -2 120 1 225 30 35 10 157 66 165 76 3 4 12 9 20 13 25 11 54
31 70 48 30 31 51 31 104 -3 51 -33 76 -52 102 -76 8 -7 14 -11 14 -7 0 3 16
-10 35 -30 20 -19 39 -35 43 -35 4 0 14 -9 22 -19 7 -11 17 -18 21 -15 4 2 10
-4 14 -15 3 -10 15 -21 25 -24 11 -3 20 -10 20 -16 0 -7 -9 -9 -23 -6 -13 4
-32 8 -43 10 -10 2 -19 4 -19 5 0 2 -37 4 -82 6 -59 2 -83 -1 -83 -9 0 -7 -4
-6 -10 3 -5 8 -10 10 -10 5 0 -6 -24 -11 -54 -13 -29 -1 -64 -5 -77 -7 -38 -8
-278 -7 -291 1 -6 4 -8 3 -4 -4 3 -5 0 -13 -6 -15 -10 -4 -9 -6 1 -6 7 -1 22
-11 32 -23 11 -11 19 -18 19 -14 0 4 12 -1 28 -12 15 -10 48 -31 73 -44 25
-14 54 -31 65 -36 10 -6 44 -22 74 -35 100 -44 126 -50 238 -54 52 -3 101 -1
110 3 10 4 20 8 24 8 3 1 10 4 14 9 4 4 14 7 21 7 15 0 30 10 80 58 19 17 37
32 40 32 8 0 51 -51 74 -87 11 -18 25 -33 30 -33 6 0 7 -4 4 -10 -3 -6 -2 -10
2 -10 10 0 73 -86 73 -100 0 -5 9 -15 20 -23 11 -8 17 -17 13 -20 -3 -4 -1 -7
5 -7 7 0 12 -9 12 -19 0 -10 7 -22 16 -25 8 -3 13 -10 10 -15 -4 -5 -3 -11 1
-13 13 -5 63 -105 57 -111 -5 -5 -27 10 -59 40 -7 7 -15 9 -19 6 -3 -4 -6 -1
-6 5 0 7 -7 12 -15 12 -8 0 -15 4 -15 8 0 10 -65 42 -85 42 -8 0 -15 4 -15 9
0 7 -16 12 -65 21 -2 1 -19 6 -37 11 -81 23 -229 30 -367 16 -52 -5 -61 -25
-25 -56 13 -11 24 -18 24 -16 0 3 10 -3 22 -15 12 -11 25 -20 28 -20 4 0 20
-11 35 -24 16 -14 32 -23 36 -20 4 2 13 -2 21 -9 17 -18 145 -80 164 -80 8 0
14 -4 14 -9 0 -4 8 -8 18 -8 9 0 37 -8 62 -16 25 -9 56 -18 70 -19 14 -2 26
-4 28 -5 5 -5 24 -8 68 -9 27 -1 43 -5 39 -11 -4 -7 3 -7 19 0 14 5 26 6 26 2
0 -5 21 -8 48 -7 60 1 72 -3 72 -25 0 -10 4 -20 9 -22 6 -1 12 -14 14 -28 3
-14 14 -50 26 -80 12 -30 21 -65 21 -77 0 -13 5 -23 11 -23 5 0 8 -4 5 -9 -4
-5 -2 -20 3 -34 5 -13 11 -37 14 -53 3 -16 8 -38 12 -49 5 -14 -2 -11 -24 12
-34 36 -143 113 -160 113 -6 0 -11 5 -11 10 0 6 -6 10 -13 10 -13 0 -217 98
-227 109 -7 8 -41 29 -65 40 -11 6 -40 23 -65 40 -26 18 -47 26 -49 20 -4 -13
26 -83 51 -120 9 -14 15 -29 11 -33 -3 -3 -1 -6 5 -6 7 0 12 -5 12 -10 0 -6
11 -27 24 -48 12 -20 23 -41 24 -46 0 -5 4 -12 9 -15 4 -3 21 -24 38 -46 48
-66 144 -155 183 -173 46 -19 58 -23 105 -29 20 -3 37 -10 37 -15 0 -6 8 -4
17 3 14 12 16 12 8 0 -5 -9 -4 -12 2 -8 9 5 70 18 93 19 20 1 30 -3 25 -11 -3
-5 -2 -12 2 -14 7 -4 8 -478 2 -514 -3 -17 -29 -4 -30 16 -1 9 -1 19 0 24 0 4
-3 7 -9 7 -5 0 -10 7 -10 15 0 8 -5 15 -10 15 -6 0 -9 4 -8 8 4 12 -29 56 -92
122 -81 85 -240 281 -240 295 0 11 -28 35 -40 35 -11 0 -8 -114 5 -182 3 -13
7 -36 10 -53 12 -69 15 -83 30 -135 9 -30 19 -66 22 -80 3 -14 9 -27 12 -30 3
-3 15 -23 26 -44 11 -22 29 -48 39 -58 11 -10 16 -18 12 -18 -13 0 46 -45 97
-75 27 -15 67 -30 90 -32 73 -7 70 -2 47 -88 -6 -22 -12 -47 -14 -55 -1 -8 -6
-23 -10 -33 -5 -10 -6 -21 -2 -24 3 -4 -1 -17 -9 -30 -9 -13 -13 -23 -10 -23
3 0 -1 -13 -10 -30 -8 -16 -15 -32 -15 -35 -1 -22 -14 -65 -21 -65 -5 0 -9 -8
-9 -17 0 -10 -29 -77 -65 -150 -36 -73 -65 -136 -65 -139 1 -4 -4 -10 -11 -15
-8 -4 -10 -12 -5 -16 9 -9 57 47 50 59 -3 4 -1 8 4 8 8 0 20 28 20 47 0 3 4 9
9 12 15 10 63 112 58 121 -3 5 0 12 5 15 9 6 20 25 35 65 1 3 6 20 10 38 4 17
11 32 16 32 5 0 9 14 9 30 0 17 5 30 12 30 6 0 9 3 5 6 -3 3 1 27 9 52 8 26
19 65 23 87 5 22 12 51 15 65 5 22 10 47 22 115 3 18 49 65 64 65 3 0 17 10
30 22 14 13 27 23 31 23 8 0 159 151 159 159 0 4 6 14 13 21 6 8 17 20 22 27
18 22 74 142 81 173 4 17 10 35 14 40 8 12 14 74 12 135 -3 143 -13 166 -56
123 -14 -14 -26 -23 -26 -20 0 9 -84 -78 -113 -115 -12 -17 -28 -36 -34 -43
-7 -8 -13 -17 -13 -21 0 -4 -8 -17 -19 -28 -24 -27 -81 -133 -81 -152 0 -8 -4
-14 -10 -14 -5 0 -10 -9 -10 -19 0 -11 -5 -23 -10 -26 -6 -4 -8 -10 -6 -14 3
-4 1 -13 -5 -21 -6 -10 -9 10 -10 60 -1 90 -5 164 -13 205 -3 17 -7 57 -10 90
-2 33 -7 67 -10 75 -4 9 2 25 11 35 35 38 95 125 86 125 -4 0 -3 4 2 8 13 8
62 77 56 77 -2 0 3 16 11 35 30 66 53 145 53 182 0 21 3 38 8 38 18 0 1 180
-27 265 -18 57 -48 114 -63 119 -12 5 -53 -51 -53 -73 0 -6 -4 -11 -9 -11 -20
0 -111 -259 -111 -319 0 -22 -4 -41 -9 -41 -4 0 -8 -10 -8 -22 -1 -103 -4
-150 -9 -146 -3 4 -7 12 -8 20 -2 7 -6 20 -9 28 -3 8 -18 51 -33 95 -15 44
-31 82 -36 83 -4 2 -8 11 -8 20 0 10 -9 32 -20 50 -11 17 -16 32 -12 32 4 0 2
4 -5 8 -6 4 -14 19 -16 33 -4 20 2 32 24 50 16 13 29 29 29 36 0 7 4 13 8 13
4 0 16 27 26 60 20 68 24 218 7 261 -5 15 -7 30 -4 33 4 3 1 6 -5 6 -7 0 -12
9 -12 20 0 11 -4 20 -10 20 -5 0 -10 7 -10 16 0 20 -41 94 -52 94 -4 0 -7 4
-6 9 4 12 -44 91 -54 91 -5 0 -8 7 -8 15 0 8 -11 25 -25 39 -14 14 -25 28 -25
31 0 4 -21 31 -47 61 -53 62 -71 60 -49 -7 25 -75 44 -162 49 -220 2 -31 7
-61 10 -66 3 -5 7 -70 8 -143 0 -74 5 -145 10 -157 5 -13 6 -23 3 -23 -10 0
-34 28 -34 39 0 6 -4 11 -8 11 -4 0 -16 14 -26 31 -10 18 -26 39 -35 48 -9 9
-25 30 -36 45 -11 16 -40 49 -63 74 -45 47 -75 96 -66 104 16 17 23 345 7 335
-5 -3 -8 9 -8 26 1 28 -59 194 -74 207 -3 3 -12 17 -20 32 -20 39 -107 128
-163 166 -41 28 -47 30 -54 14 -10 -21 -12 -205 -2 -212 4 -3 8 -27 9 -53 2
-26 6 -47 10 -47 4 0 9 -15 12 -32 8 -52 16 -79 27 -92 5 -7 8 -15 5 -17 -2
-3 18 -50 45 -105 28 -54 50 -103 50 -107 0 -4 -11 2 -24 15 -37 36 -65 58
-75 58 -5 0 -11 7 -15 15 -3 8 -12 15 -21 15 -8 0 -15 4 -15 8 0 5 -16 17 -35
28 -19 10 -35 22 -35 26 0 5 -7 8 -15 8 -8 0 -15 4 -15 9 0 5 -9 11 -19 14
-18 4 -19 8 -7 48 7 24 11 50 9 57 -3 6 1 12 7 12 9 0 9 5 -1 17 -12 15 -12
16 1 8 12 -7 13 -6 4 6 -6 8 -14 38 -18 67 -7 55 -45 136 -77 164 -10 9 -19
21 -19 27 0 6 -7 11 -16 11 -8 0 -12 5 -9 10 3 6 1 10 -5 10 -6 0 -17 6 -24
13 -32 31 -158 117 -172 117 -7 0 -14 4 -16 8 -3 8 -153 83 -190 95 -9 3 -18
3 -21 0z m208 -190 c28 -28 60 -62 71 -75 35 -38 108 -148 145 -218 18 -36 37
-66 41 -68 5 -2 8 -11 8 -21 0 -9 5 -22 12 -29 22 -22 -3 -26 -40 -7 -20 11
-39 22 -42 25 -3 3 -24 22 -47 42 -23 20 -39 39 -35 42 3 3 1 6 -4 6 -5 0 -23
26 -39 58 -17 31 -33 59 -36 62 -7 6 -17 33 -15 40 0 3 -8 19 -19 35 -12 17
-30 48 -40 70 -11 22 -23 42 -27 43 -5 2 -8 10 -8 18 0 8 -4 14 -10 14 -5 0
-10 6 -10 14 0 7 -7 19 -15 26 -8 7 -15 17 -15 22 0 14 68 -40 125 -99z m5 67
c0 -5 9 -10 19 -10 11 0 21 -3 23 -8 2 -4 28 -25 58 -47 121 -86 207 -195 212
-270 1 -20 6 -39 10 -41 5 -3 6 -9 4 -13 -3 -4 -6 -25 -7 -48 -3 -46 -24 -54
-33 -11 -3 15 -5 31 -3 34 1 3 -6 10 -16 15 -9 6 -15 14 -12 20 4 5 2 9 -3 9
-6 0 -15 12 -21 28 -12 31 -41 80 -58 100 -7 7 -13 16 -13 20 0 4 -10 19 -23
34 -12 15 -38 46 -57 69 -19 23 -52 59 -72 79 -20 21 -34 41 -31 44 10 9 23 7
23 -4z m-464 -122 c4 -5 18 -8 31 -8 13 0 31 -4 41 -9 9 -5 39 -19 66 -32 48
-23 108 -75 127 -110 12 -24 9 -24 -76 2 -39 11 -90 23 -115 26 -25 3 -47 8
-50 12 -3 3 -21 8 -40 10 -19 2 -42 6 -50 10 -8 4 -102 8 -209 9 -106 0 -196
3 -199 6 -5 6 22 10 41 7 4 0 7 3 7 8 0 5 12 12 28 17 34 9 30 8 77 19 46 10
44 9 68 20 10 4 33 8 52 9 18 0 36 3 38 6 8 8 155 6 163 -2z m1042 -67 c32
-32 64 -72 72 -87 8 -16 17 -31 20 -34 8 -8 41 -81 44 -100 1 -3 6 -12 11 -20
5 -8 8 -25 6 -37 -1 -13 2 -23 7 -23 5 0 9 -6 9 -12 9 -139 9 -239 1 -244 -13
-8 -18 -2 -20 29 -1 15 -6 27 -10 27 -4 0 -7 3 -6 8 2 11 -12 65 -23 84 -5 10
-9 27 -9 38 0 11 -5 20 -10 20 -6 0 -10 6 -9 13 2 6 -5 29 -14 51 -9 21 -17
42 -17 45 0 4 -11 31 -25 59 -14 29 -25 56 -25 60 0 5 -9 26 -19 48 -11 22
-23 52 -26 67 -4 15 -11 27 -15 27 -4 0 -10 9 -13 20 -9 34 11 23 71 -39z
m-18 -158 c0 -8 5 -11 10 -8 6 3 10 -2 10 -13 0 -10 7 -33 16 -51 9 -17 17
-37 18 -44 1 -7 8 -22 14 -34 7 -13 11 -23 8 -23 -3 0 3 -19 14 -42 10 -23 16
-46 14 -50 -3 -4 0 -8 5 -8 6 0 10 -3 10 -7 -5 -29 2 -53 14 -47 6 4 9 4 6 0
-7 -7 5 -68 27 -143 4 -14 2 -23 -5 -23 -6 0 -8 7 -4 17 4 10 2 14 -4 10 -5
-3 -16 5 -23 18 -7 14 -17 25 -22 25 -4 0 -8 7 -8 15 0 8 -5 15 -11 15 -5 0
-7 5 -4 10 3 6 1 10 -4 10 -6 0 -11 7 -11 15 0 8 -4 15 -8 15 -9 0 -42 70 -42
89 0 7 -4 9 -10 6 -5 -3 -10 2 -10 13 0 10 -3 22 -7 26 -5 4 -8 11 -9 14 -2
20 -18 68 -24 77 -20 26 -46 216 -41 290 2 21 81 -147 81 -172z m-1435 106 c3
6 27 8 53 6 26 -3 92 -7 147 -10 55 -3 111 -8 125 -12 14 -3 36 -7 50 -8 27
-2 76 -11 125 -22 17 -4 32 -7 35 -8 34 -6 140 -39 140 -44 0 -15 -92 -44
-147 -46 -23 0 -45 -4 -48 -7 -4 -3 -21 -4 -38 0 -18 3 -53 6 -79 6 -27 1 -48
4 -48 9 0 4 -13 7 -30 7 -16 0 -30 5 -30 10 0 6 -13 10 -30 10 -16 0 -30 5
-30 12 0 6 -3 9 -6 6 -3 -4 -36 2 -72 11 -111 29 -168 42 -178 40 -9 -2 -28 4
-69 21 -16 7 -13 9 18 11 50 2 54 3 62 11 4 4 16 3 26 -2 11 -6 20 -7 24 -1z
m1021 -318 c-3 -4 11 -8 32 -8 85 -1 103 -3 97 -13 -3 -5 -15 -10 -26 -10 -10
0 -19 -4 -19 -8 0 -5 -14 -7 -30 -6 -17 1 -33 -2 -36 -7 -3 -5 -21 -9 -40 -9
-19 0 -34 -4 -34 -9 0 -4 -12 -8 -27 -8 -16 0 -39 -3 -53 -7 -14 -3 -41 -8
-60 -9 -19 -2 -40 -6 -46 -9 -5 -4 -42 -8 -82 -9 -39 -1 -69 -5 -67 -9 2 -4
-20 -8 -50 -9 -32 -1 -55 3 -55 9 0 5 9 10 20 10 11 0 20 3 20 8 0 6 107 49
145 59 42 10 74 15 95 16 14 1 27 5 30 9 3 4 42 9 87 10 45 2 85 7 89 11 10
10 16 9 10 -2z m81 -68 c-9 -2 -15 -8 -12 -12 2 -5 -17 -19 -43 -32 -26 -13
-49 -26 -52 -30 -4 -5 -45 -19 -70 -23 -3 -1 -10 -5 -17 -9 -6 -4 -23 -8 -37
-9 -14 -1 -26 -5 -26 -8 0 -4 -18 -6 -41 -6 -22 1 -42 -2 -44 -5 -7 -10 -146
-1 -210 15 -11 2 -26 5 -33 5 -7 1 -11 5 -8 10 6 9 71 21 141 27 22 2 49 5 60
8 11 2 39 5 63 5 24 1 41 4 39 9 -3 4 20 8 51 10 31 2 61 7 67 11 5 4 26 8 45
10 19 2 36 6 38 10 1 4 15 6 31 3 16 -2 32 1 35 7 4 6 15 10 24 10 15 -1 15
-2 -1 -6z m881 -157 c23 -35 42 -67 42 -71 0 -3 7 -13 15 -22 8 -8 13 -19 10
-24 -4 -5 -2 -9 3 -9 11 0 62 -128 62 -158 0 -12 4 -22 9 -22 13 0 -3 -150
-21 -190 -52 -118 -66 -123 -63 -24 1 43 -2 74 -8 74 -5 0 -5 6 2 13 6 8 8 17
4 20 -3 4 -8 26 -9 49 -6 82 -16 143 -31 198 -8 30 -20 78 -26 105 -6 28 -14
52 -17 55 -6 5 -30 58 -30 65 0 18 22 -4 58 -59z m-74 32 c2 -7 8 -26 14 -41
7 -15 15 -40 18 -55 4 -15 9 -31 13 -37 7 -12 9 -25 17 -87 4 -26 11 -45 15
-42 5 3 9 -24 9 -60 0 -36 5 -68 11 -72 7 -4 7 -10 1 -16 -6 -6 -7 -20 -3 -32
6 -17 8 -156 2 -176 -3 -11 -29 40 -46 90 -10 30 -21 64 -26 75 -4 11 -7 27
-7 35 0 8 -3 78 -6 155 -4 77 -7 161 -8 188 -1 26 -5 47 -10 47 -4 0 -8 12 -8
27 0 26 9 27 14 1z m-389 -132 c46 -11 136 -59 127 -68 -29 -29 -451 -26 -488
3 -6 5 -25 7 -42 5 -17 -2 -33 2 -35 8 -2 6 -15 11 -28 12 -32 1 -60 14 -54
24 3 5 60 9 128 10 67 0 138 4 157 9 41 9 192 7 235 -3z m-421 -84 c2 -4 22
-8 43 -7 21 0 40 -3 43 -7 3 -4 42 -8 87 -9 50 -2 79 -7 76 -12 -4 -6 -1 -7 8
-1 21 13 39 14 39 1 0 -7 5 -5 10 3 9 13 10 13 10 0 0 -13 1 -13 10 0 7 11 10
11 10 2 0 -7 4 -11 9 -8 5 4 36 9 68 11 32 3 78 8 103 10 31 3 40 1 30 -5 -8
-5 -10 -10 -5 -10 6 0 -6 -10 -25 -21 -19 -12 -37 -25 -40 -29 -3 -4 -16 -10
-30 -11 -14 -2 -27 -7 -30 -11 -3 -4 -19 -9 -35 -12 -17 -2 -32 -5 -35 -6 -24
-9 -201 26 -211 42 -3 6 -9 9 -13 9 -15 -3 -56 12 -56 20 0 5 -11 9 -25 9 -14
0 -25 5 -25 10 0 6 -7 10 -15 10 -8 0 -15 4 -15 10 0 5 -7 7 -15 4 -8 -4 -15
-1 -15 5 0 13 36 15 44 3z m1261 -369 c-3 -32 -7 -71 -9 -88 -14 -147 -22
-211 -36 -285 -5 -25 -14 -72 -20 -105 -6 -33 -15 -72 -21 -86 -5 -14 -11 -35
-12 -47 -1 -12 -5 -22 -9 -22 -4 0 -8 -10 -9 -22 0 -19 -2 -20 -7 -6 -4 10 -7
38 -6 63 0 25 -2 45 -6 45 -11 0 -7 114 4 122 7 5 6 8 -3 8 -11 0 -11 3 0 17
12 14 12 15 1 9 -11 -7 -12 -4 -5 10 5 11 11 35 12 54 2 47 5 63 13 76 4 6 6
21 3 32 -2 12 0 24 6 27 5 4 9 17 9 31 0 13 5 24 12 24 6 0 9 3 5 6 -3 4 0 21
7 38 16 39 15 37 22 64 4 12 10 22 15 22 5 0 9 9 9 20 0 11 5 20 10 20 6 0 10
7 10 15 0 8 3 15 6 15 3 0 3 -26 -1 -57z m64 2 c24 -60 29 -94 29 -190 1 -59
-3 -105 -9 -105 -5 0 -9 -12 -9 -26 0 -30 -31 -126 -43 -135 -4 -3 -9 -16 -10
-27 -1 -12 -5 -22 -9 -22 -4 0 -8 -7 -8 -15 0 -8 -4 -15 -10 -15 -5 0 -12 -11
-16 -25 -3 -14 -10 -25 -15 -25 -5 0 -9 -8 -9 -17 0 -15 -2 -15 -9 -4 -5 8 -7
24 -4 35 3 12 7 35 10 51 3 17 9 35 12 40 4 6 8 25 9 44 2 19 6 39 9 45 4 6 8
31 9 56 0 25 4 52 7 60 3 8 9 44 12 80 4 36 8 81 10 100 2 19 5 58 6 85 2 49
21 82 27 47 2 -9 7 -26 11 -37z m-771 9 c28 -3 52 -9 52 -13 0 -4 10 -8 22 -8
13 -1 32 -7 43 -12 11 -5 38 -18 60 -27 22 -10 46 -24 53 -31 7 -7 18 -13 23
-13 10 0 43 -27 103 -82 38 -36 37 -49 -2 -29 -9 5 -53 24 -97 41 -44 17 -88
35 -97 40 -10 6 -27 10 -38 10 -12 0 -18 5 -15 10 3 6 -5 10 -19 10 -14 0 -28
5 -31 10 -4 6 -10 8 -15 5 -5 -3 -12 0 -15 6 -4 5 -13 8 -21 5 -7 -3 -16 -1
-19 3 -8 14 -105 42 -117 35 -7 -4 -8 -3 -4 4 5 8 -3 12 -24 12 -19 0 -29 4
-25 10 4 6 3 10 -2 9 -4 -1 -21 -1 -38 1 -26 1 -28 2 -10 10 20 9 127 6 233
-6z m-294 -13 c6 -8 61 -21 98 -22 10 0 20 -4 23 -10 4 -5 17 -9 31 -9 13 0
24 -4 24 -8 0 -4 12 -9 26 -10 15 -1 33 -7 40 -13 8 -6 14 -8 14 -3 0 4 5 3
12 -4 7 -7 18 -12 25 -12 8 0 33 -9 55 -20 23 -11 46 -20 51 -20 8 0 22 -5
109 -44 20 -9 43 -16 52 -16 9 0 16 -4 16 -10 0 -5 9 -10 21 -10 13 0 18 -4
13 -12 -4 -7 -3 -8 4 -4 7 4 20 2 29 -4 13 -8 -10 -9 -87 -5 -57 4 -109 10
-115 14 -5 5 -21 11 -35 14 -86 19 -124 33 -210 74 -52 26 -97 50 -100 53 -3
4 -15 10 -27 14 -13 4 -23 12 -23 17 0 5 -5 9 -10 9 -6 0 -22 11 -36 25 -14
14 -20 25 -15 25 5 0 12 -4 15 -9z m366 -419 c0 -10 56 -43 62 -36 3 2 11 -2
18 -11 7 -8 19 -15 26 -15 8 0 14 -4 14 -10 0 -5 5 -10 11 -10 17 0 181 -82
219 -110 60 -43 70 -54 107 -103 22 -30 33 -53 29 -64 -5 -12 -9 -14 -18 -5
-7 7 -20 12 -29 12 -10 0 -19 3 -21 8 -1 4 -30 20 -63 37 -33 16 -62 32 -65
35 -3 3 -30 21 -60 40 -30 19 -62 42 -71 52 -9 10 -21 18 -27 18 -5 0 -24 16
-41 35 -17 20 -31 33 -31 29 0 -3 -20 16 -45 42 -48 53 -53 64 -30 64 8 0 15
-4 15 -8z m97 -169 c19 -18 37 -33 41 -33 4 0 19 -11 34 -25 15 -14 32 -25 38
-25 5 0 10 -5 10 -11 0 -5 5 -7 10 -4 6 3 10 1 10 -4 0 -6 7 -11 15 -11 8 0
15 -3 15 -7 0 -11 58 -43 76 -43 8 0 14 -3 14 -8 0 -9 74 -42 95 -42 25 0 17
-26 -10 -28 -13 -1 -28 -3 -32 -4 -13 -3 -116 14 -133 22 -8 4 -28 14 -45 21
-34 16 -165 141 -165 157 0 7 -4 12 -9 12 -5 0 -17 16 -27 36 -11 20 -23 44
-29 55 -5 10 -13 19 -18 19 -4 0 -5 5 -1 11 6 10 22 -2 111 -88z m783 -193 c0
-5 -5 -10 -12 -10 -6 0 -9 -3 -5 -6 3 -3 -15 -49 -40 -102 -25 -54 -46 -103
-46 -109 0 -7 -4 -13 -9 -13 -4 0 -8 -9 -8 -21 0 -11 -4 -17 -10 -14 -5 3 -10
-1 -10 -10 0 -18 -30 -78 -42 -83 -5 -2 -8 -10 -8 -18 0 -16 -29 -65 -45 -76
-5 -4 -6 -8 -1 -8 5 0 2 -8 -6 -17 -9 -10 -19 -28 -22 -40 -4 -13 -12 -23 -17
-23 -5 0 -9 -7 -9 -15 0 -9 -7 -18 -15 -21 -8 -4 -15 -12 -15 -19 0 -8 -5 -17
-11 -21 -12 -7 -11 6 11 101 7 28 13 57 14 65 3 21 76 186 97 220 5 8 12 23
15 33 4 9 10 17 15 17 5 0 9 5 9 11 0 14 44 71 105 136 49 52 65 63 65 43z
m47 -52 c-5 -56 -21 -145 -30 -173 -2 -5 -7 -22 -12 -37 -4 -16 -11 -28 -16
-28 -5 0 -9 -7 -9 -15 0 -14 -44 -93 -59 -105 -3 -3 -22 -25 -41 -50 -19 -25
-48 -56 -63 -69 -16 -14 -35 -31 -42 -38 -8 -7 -18 -13 -23 -13 -6 0 -13 -6
-16 -12 -3 -7 -3 -2 0 12 4 14 11 27 15 28 5 2 9 10 9 18 0 8 4 14 9 14 5 0
11 8 14 18 7 19 64 121 79 140 6 6 7 12 4 12 -4 0 2 13 13 29 12 16 21 36 21
45 0 9 5 16 10 16 6 0 9 3 8 8 -1 4 12 38 30 75 18 38 32 73 32 78 0 5 5 9 10
9 6 0 9 3 8 8 -5 12 34 92 45 92 5 0 7 -26 4 -62z m-777 -140 c0 -5 6 -15 13
-22 6 -7 23 -27 37 -45 28 -37 75 -88 157 -173 30 -32 52 -58 47 -58 -4 0 1
-10 12 -22 11 -13 28 -41 38 -63 10 -22 22 -48 27 -57 11 -21 12 -98 2 -98 -4
0 -33 27 -63 60 -77 84 -85 94 -82 102 1 5 -2 8 -8 8 -5 0 -10 6 -10 14 0 8
-7 16 -15 20 -8 3 -15 12 -15 21 0 8 -4 15 -8 15 -5 0 -17 17 -28 38 -10 20
-21 39 -24 42 -10 10 -60 116 -60 128 0 6 -4 12 -10 12 -5 0 -10 10 -10 23 0
13 -5 28 -12 35 -7 7 -8 12 -4 12 5 0 3 7 -4 15 -11 13 -10 14 4 9 9 -3 16
-10 16 -16z m-10 -89 c0 -16 34 -89 42 -89 5 0 8 -9 8 -19 0 -11 6 -26 13 -33
6 -7 21 -30 31 -51 11 -20 23 -37 28 -37 4 0 8 -6 8 -12 0 -7 13 -28 28 -46
15 -17 36 -43 47 -57 11 -14 42 -48 68 -76 27 -28 47 -52 45 -54 -8 -6 -77 8
-72 16 3 5 -4 9 -15 9 -29 0 -91 47 -129 97 -39 51 -85 150 -77 163 3 6 2 10
-3 10 -6 0 -12 15 -15 33 -3 17 -8 43 -12 57 -13 49 -17 112 -6 105 6 -3 11
-10 11 -16z"/>
<path d="M2256 3983 c-1 -1 -33 -5 -71 -8 -39 -4 -79 -9 -90 -11 -11 -2 -46
-9 -78 -14 -163 -30 -445 -152 -562 -242 -5 -5 -35 -27 -65 -50 -114 -87 -301
-294 -350 -388 -7 -14 -16 -27 -19 -30 -8 -6 -85 -162 -107 -215 -20 -50 -63
-190 -70 -230 -3 -16 -11 -64 -19 -105 -13 -76 -14 -388 -1 -460 23 -126 20
-110 36 -170 28 -105 77 -236 96 -260 7 -8 16 -27 19 -42 4 -16 11 -28 16 -28
5 0 9 -6 9 -13 0 -15 99 -165 154 -232 55 -67 169 -178 236 -229 65 -50 177
-125 205 -137 11 -5 27 -13 35 -19 29 -19 152 -71 196 -82 24 -7 44 -15 44
-18 0 -3 8 -7 18 -8 31 -3 47 -7 60 -15 6 -5 12 -6 12 -3 0 2 15 0 33 -5 17
-5 52 -12 77 -15 25 -3 61 -9 81 -13 37 -8 319 -7 379 2 52 8 103 17 122 23 9
3 26 7 37 9 12 3 29 7 39 9 10 2 54 16 98 31 250 85 492 250 673 461 116 135
270 430 294 562 2 9 11 51 19 92 31 146 36 197 33 355 -3 156 -5 186 -26 290
-12 63 -69 247 -80 260 -5 5 -9 17 -9 27 0 10 -4 18 -10 18 -5 0 -9 4 -7 8 3
11 -64 143 -85 166 -10 11 -18 26 -18 33 0 8 -7 16 -15 19 -8 4 -15 10 -15 16
0 8 -21 38 -65 96 -23 30 -173 180 -215 215 -56 47 -205 147 -218 147 -6 0
-12 3 -14 8 -3 7 -96 53 -145 73 -13 5 -33 13 -45 19 -24 10 -141 49 -168 55
-77 17 -174 35 -218 39 -29 3 -56 8 -61 11 -5 3 -12 1 -16 -5 -4 -6 -12 -7
-18 -3 -10 6 -135 11 -141 6z"/>
<path d="M283 1555 c-72 -35 -134 -68 -136 -72 -3 -5 3 -26 13 -48 11 -22 19
-46 20 -52 0 -7 5 -13 10 -13 6 0 10 -7 10 -16 0 -16 60 -83 60 -67 0 4 4 2 9
-6 19 -29 98 14 104 56 4 30 14 38 30 25 29 -24 96 9 98 48 2 44 -3 74 -16
100 -7 14 -21 43 -31 64 -11 22 -24 41 -29 42 -6 2 -69 -26 -142 -61z m144
-39 c29 -56 33 -83 14 -100 -34 -31 -53 -19 -89 53 l-21 45 27 16 c38 23 51
21 69 -14z m-130 -46 c3 -11 9 -20 14 -20 5 0 9 -9 9 -20 0 -11 4 -20 9 -20
10 0 9 -56 -2 -66 -12 -12 -51 -11 -64 1 -19 19 -53 84 -53 100 0 8 15 21 33
29 44 19 48 19 54 -4z"/>
<path d="M4011 1209 c-23 -9 -101 -86 -101 -100 0 -3 -9 -16 -20 -29 l-20 -24
27 -28 c15 -15 32 -28 39 -28 7 0 14 -3 16 -8 2 -4 35 -32 73 -62 39 -30 72
-57 75 -60 11 -11 34 -10 41 2 14 21 10 38 -7 38 -8 0 -12 5 -9 10 3 6 1 10
-5 10 -6 0 -18 6 -25 14 -15 14 -14 16 36 74 7 9 21 12 38 8 63 -15 80 -14
100 10 12 13 18 24 13 25 -4 0 -18 2 -32 5 -87 14 -87 14 -85 37 3 31 -48 104
-74 108 -3 0 -17 2 -31 4 -14 2 -36 -1 -49 -6z m74 -61 c38 -33 31 -79 -20
-132 -22 -24 -35 -26 -51 -11 -6 5 -25 21 -42 34 l-32 24 22 31 c25 37 68 76
85 76 7 0 24 -10 38 -22z"/>
<path d="M646 1178 c-20 -11 -52 -37 -97 -78 -15 -14 -48 -41 -73 -60 -55 -42
-61 -55 -38 -78 21 -23 56 -66 90 -114 28 -38 56 -49 65 -24 7 17 -17 53 -73
114 -26 28 -29 62 -5 62 7 0 15 7 19 15 3 8 10 15 16 15 11 0 40 -24 40 -33 0
-3 17 -23 38 -45 31 -33 39 -38 50 -27 15 17 16 35 2 35 -5 0 -10 7 -10 15 0
9 -7 18 -15 21 -8 4 -15 11 -15 16 0 6 -8 18 -17 27 -26 23 -26 39 0 52 12 7
25 17 30 23 7 10 19 -2 102 -101 14 -16 26 -22 38 -18 18 8 24 35 7 35 -5 0
-10 5 -10 11 0 6 -12 26 -27 43 -16 17 -41 48 -57 69 -33 41 -33 41 -60 25z"/>
<path d="M3587 792 c-10 -11 -13 -22 -7 -32 5 -8 7 -17 4 -21 -2 -4 3 -25 11
-48 8 -23 14 -43 15 -46 0 -5 1 -9 5 -22 3 -15 16 -78 19 -95 1 -10 5 -21 9
-24 4 -4 7 -17 7 -30 0 -26 19 -36 37 -19 15 15 14 75 -1 75 -6 0 -4 5 4 10 8
5 11 10 6 10 -6 0 10 15 35 32 24 18 50 38 57 45 17 16 37 16 65 1 32 -18 40
-17 61 3 17 17 16 18 -35 45 -30 14 -100 51 -156 80 -55 30 -105 54 -110 54
-6 0 -17 -8 -26 -18z m93 -69 c22 -10 40 -21 40 -25 0 -5 6 -8 14 -8 8 0 16
-6 19 -13 6 -16 -54 -67 -79 -67 -10 0 -15 3 -12 6 4 3 1 20 -7 37 -7 18 -10
38 -8 45 3 6 0 12 -6 12 -6 0 -11 7 -11 15 0 19 1 19 50 -2z"/>
<path d="M1032 783 c-6 -3 -10 -9 -6 -14 4 -8 -17 -14 -38 -10 -5 0 -8 -3 -8
-9 0 -5 -17 -17 -37 -26 -21 -10 -49 -26 -62 -36 -13 -10 -27 -15 -32 -12 -5
3 -9 0 -9 -5 0 -6 -9 -11 -21 -11 -11 0 -18 -4 -15 -9 3 -5 -6 -12 -20 -15
-27 -7 -28 -23 -2 -39 11 -8 26 -5 53 7 36 17 37 17 59 -3 12 -12 26 -21 30
-21 4 0 14 -7 22 -15 8 -8 24 -21 35 -29 18 -12 19 -18 10 -52 -9 -33 -8 -40
9 -56 20 -19 20 -18 31 9 11 29 13 37 25 111 4 23 10 42 13 42 4 0 8 14 9 31
1 18 5 37 9 42 4 6 8 20 9 31 1 12 4 30 7 41 7 33 -33 60 -71 48z m4 -100 c-3
-21 -10 -53 -16 -70 -13 -36 -21 -35 -72 10 -31 27 -35 37 -14 37 8 0 16 4 18
9 2 7 74 49 86 51 2 0 1 -17 -2 -37z"/>
<path d="M1371 553 c-5 -10 -10 -22 -11 -28 -3 -11 -11 -34 -31 -80 -7 -16
-12 -33 -11 -37 1 -5 -2 -8 -8 -8 -5 0 -10 -24 -10 -54 0 -50 3 -56 40 -90 72
-64 153 -65 208 -2 12 14 22 28 22 31 0 3 11 28 25 57 14 28 25 58 25 65 0 7
5 13 12 13 6 0 8 3 5 6 -3 4 -2 15 4 25 7 15 6 19 -6 19 -8 0 -15 4 -15 10 0
5 -6 7 -14 4 -7 -3 -31 -47 -52 -97 -34 -83 -62 -125 -86 -128 -4 -1 -14 -2
-20 -3 -16 -3 -59 15 -76 31 -23 22 -25 68 -4 114 48 108 62 142 62 155 0 20
-48 17 -59 -3z"/>
<path d="M3174 538 c-38 -16 -77 -31 -86 -34 -22 -8 -23 -31 -4 -70 38 -78 60
-130 58 -136 -1 -5 3 -8 8 -8 6 0 10 -5 10 -11 0 -27 33 -79 51 -79 11 0 19 5
19 10 0 6 7 10 16 10 9 0 43 14 77 32 68 36 97 83 79 123 -13 27 -66 67 -77
57 -4 -4 -4 12 0 35 6 36 3 46 -17 66 -34 36 -57 37 -134 5z m91 -42 c17 -17
15 -56 -3 -56 -7 0 -10 -4 -7 -10 3 -5 -1 -10 -10 -10 -9 0 -26 -5 -38 -12
-36 -20 -45 -18 -57 13 -14 33 -8 57 17 65 10 3 25 9 33 14 23 13 50 12 65 -4z
m71 -120 c19 -50 9 -66 -59 -95 -48 -21 -55 -19 -76 21 -18 35 -9 55 28 63 17
4 33 11 36 16 10 14 65 11 71 -5z"/>
<path d="M1843 395 c-7 -21 7 -34 43 -41 31 -6 56 -22 49 -33 -5 -9 -14 -53
-21 -101 -3 -19 -10 -51 -15 -70 -16 -61 -12 -80 16 -80 23 0 31 13 26 43 0 4
3 7 8 7 4 0 8 8 8 17 -1 17 11 95 20 138 2 11 5 26 7 33 3 16 26 39 26 27 0
-6 18 -11 40 -12 30 -2 40 1 40 12 0 8 1 18 3 22 1 3 -5 7 -13 8 -8 2 -49 10
-90 18 -135 28 -140 29 -147 12z"/>
<path d="M2506 355 c-11 -8 -16 -15 -10 -15 5 0 4 -4 -1 -8 -6 -4 -24 -35 -40
-70 l-30 -63 -18 23 c-10 13 -24 30 -30 38 -7 8 -13 17 -13 20 0 3 -9 19 -19
35 -10 17 -20 31 -21 33 -4 7 -44 10 -48 3 -3 -5 8 -29 24 -55 17 -26 30 -49
30 -52 0 -3 5 -10 10 -17 42 -50 62 -95 64 -142 1 -44 4 -50 24 -53 21 -3 22
0 22 53 0 48 8 73 50 158 28 56 50 107 50 114 0 17 -20 16 -44 -2z"/>
</g>
</svg>
